<?xml version="1.0" encoding="utf-8"?>
<!-- Generator: Adobe Illustrator 20.1.0, SVG Export Plug-In . SVG Version: 6.00 Build 0)  -->
<svg version="1.1" id="Capa_1" xmlns="http://www.w3.org/2000/svg" xmlns:xlink="http://www.w3.org/1999/xlink" x="0px" y="0px"
	 viewBox="0 0 512 512" style="enable-background:new 0 0 512 512;" xml:space="preserve">
<style type="text/css">
	.st0{fill:#9E1B1D;}
</style>
<g>
	<g>
		<path class="st0" d="M189.5,396.4c0,9.9,29.8,18,66.5,18c36.7,0,66.5-8.1,66.5-18c0-7.9-18.7-14.5-44.6-17
			c0.5-3.1,0.5-5.4,0.5-5.4s-5.6-26.6,1.9-42c7.5-15.4,4.7-38.3,2.8-41.6c-1.9-3.3-4.2-20.5,0-27.6c4.2-7,5.6-22.9,7.9-47.1
			c2.3-24.3-4.3-29-4.3-29v-20.1h4.3c14-0.9,15.9-29.9,17.7-42.9c1.9-13.1,11.2-25.2,0-40.6c-11.2-15.4-38.3-21-38.3-21l0.5-14
			c0,0,7.2-6.1,6.6-27.1C276.7,0,259,0,259,0H253c0,0-17.6,0-18.3,21c-0.7,21,6.5,27.1,6.5,27.1l0.5,14c0,0-27.1,5.6-38.3,21
			s-1.9,27.6,0,40.6c1.9,13.1,3.7,42,17.8,42.9h4.3v20.1c0,0-6.7,4.7-4.3,29c2.3,24.3,3.7,40.1,7.9,47.1c4.2,7,1.9,24.3,0,27.6
			c-1.9,3.3-4.7,26.2,2.8,41.6c7.5,15.4,1.9,42,1.9,42s-0.1,2.4,0.4,5.4C208.2,381.9,189.5,388.6,189.5,396.4z"/>
		<path class="st0" d="M331.1,435.5c2.4-3,3.6-6.5,3.5-10.5c-0.4-16.9-7.4-20.6-9.4-21.3c-16.5,15.2-61,16.1-71.6,16.1
			c-10.2,0-51.8-0.9-69.6-14.6c-2.8,2.3-6.5,7.6-6.8,19.8c-0.1,4.1,1.1,7.5,3.5,10.5c-17.9,4.9-29,11.7-29,19v35
			c0,0,20.5,23.8,110.2,22.4c89.7-1.4,98.1-28.7,98.1-28.7v-30.6h-0.4C358.1,446,347.5,440,331.1,435.5z"/>
	</g>
</g>
</svg>
