<?xml version="1.0" encoding="utf-8"?>
<!-- Generator: Adobe Illustrator 20.1.0, SVG Export Plug-In . SVG Version: 6.00 Build 0)  -->
<svg version="1.1" id="Layer_1" xmlns="http://www.w3.org/2000/svg" xmlns:xlink="http://www.w3.org/1999/xlink" x="0px" y="0px"
	 viewBox="0 0 100 125" style="enable-background:new 0 0 100 125;" xml:space="preserve">
<style type="text/css">
	.st0{fill:#9E1B1D;}
</style>
<title>Artboard 13</title>
<path class="st0" d="M68.5,56.3c-0.8-3.1-2.3-5.9-4.4-8.2c-0.7-0.7-1.4-1.4-2.2-2.1c-4.1-3.2-8.4-6-13-8.5c-0.2-0.1-0.5,0-0.6,0.2
	l-5.3,10c0,0.1-0.1,0.1-0.2,0.1c0,0,0,0-0.1-0.1c-0.4-1.2-1.9-5.4-4.3-5c-0.1,0-0.1,0-0.2-0.1v-0.1c2.7-2.1,5.3-4.4,7.7-6.8
	c0.1-0.2,0.2-0.4,0.2-0.6v-3c0.7-1.2,1.2-2.6,1.5-4c0.6,0,1.3-0.9,2.1-3.7c1.1-3.8,0-4.4-1-4.4C51.2,9,45,8.9,45,8.9
	c-0.5-2.3-3.8-4.7-6.9-4.1s-9.4-0.1-9.4-0.1c0,0.9,0.4,1.7,1.1,2.2c-5.6,3.4-4.3,10.9-3.8,13c-1,0-1.9,0.7-0.9,4.4
	c0.8,2.9,1.6,3.7,2.1,3.7c0.2,1.4,0.7,2.8,1.5,4l0,0v3c0,0.2,0.1,0.4,0.2,0.6c2.4,2.4,5,4.7,7.7,6.8c0.1,0.1,0.1,0.1,0,0.2h-0.1
	c-2.3-0.4-3.9,3.8-4.3,5c0,0.1-0.1,0.1-0.2,0.1c0,0,0,0-0.1-0.1l-5.3-9.9c-0.1-0.2-0.4-0.3-0.6-0.2c-4.6,2.4-8.9,5.3-13,8.5
	c-0.8,0.6-1.5,1.3-2.2,2.1l0,0c-2.1,2.3-3.6,5.1-4.4,8.2L1,78.7c-0.3,1.2-0.2,2.5,0.3,3.6l5.7,13h61l5.7-12.9
	c0.5-1.1,0.6-2.4,0.3-3.6L68.5,56.3z M15.2,92.5l-3.1-11.8l3.4-10.8L15.2,92.5z M59.8,92.5l-0.3-22.6l3.4,10.8L59.8,92.5z M84.1,4.7
	H70.5c-8.3-0.1-15.1,6.6-15.2,14.8c0,6.6,4.2,12.5,10.5,14.5v7.2c0,0.4,0.3,0.7,0.7,0.8c0.2,0,0.4-0.1,0.5-0.2l6.9-6.9h10.2
	c8.3,0,15-6.7,15-15S92.4,4.8,84.1,4.7L84.1,4.7z M71.1,18.8l-1.7,1.4l0.6,2.1c0.1,0.2-0.1,0.5-0.3,0.6c-0.1,0-0.2,0-0.4-0.1
	l-1.9-1.2l-1.9,1.2c-0.2,0.1-0.5,0.1-0.6-0.1c-0.1-0.1-0.1-0.2-0.1-0.4l0.5-2.1l-1.7-1.4c-0.2-0.2-0.2-0.5-0.1-0.6
	c0.1-0.1,0.2-0.2,0.4-0.2l2.2-0.2l0.8-2c0.1-0.2,0.4-0.4,0.6-0.3c0.1,0,0.2,0.1,0.3,0.3l0.8,2l2.2,0.2c0.3,0,0.4,0.3,0.4,0.5
	C71.3,18.6,71.2,18.7,71.1,18.8L71.1,18.8z M81,18.8l-1.7,1.4l0.5,2.1c0.1,0.2-0.1,0.5-0.3,0.6c-0.1,0-0.2,0-0.4-0.1l-1.9-1.2
	l-1.9,1.2c-0.2,0.1-0.5,0.1-0.6-0.1c-0.1-0.1-0.1-0.2-0.1-0.4l0.5-2.1l-1.7-1.4c-0.2-0.2-0.2-0.5-0.1-0.6s0.2-0.2,0.3-0.2l2.2-0.2
	l0.8-2c0.1-0.2,0.4-0.4,0.6-0.3c0.1,0,0.2,0.1,0.3,0.3l0.8,2l2.2,0.2c0.3,0,0.4,0.3,0.4,0.5C81.1,18.6,81.1,18.7,81,18.8L81,18.8z
	 M90.9,18.8l-1.7,1.4l0.5,2.1c0.1,0.2-0.1,0.5-0.3,0.6c-0.1,0-0.2,0-0.4-0.1l-1.9-1.2l-1.9,1.2c-0.2,0.1-0.5,0.1-0.6-0.1
	c-0.1-0.1-0.1-0.2-0.1-0.4l0.5-2.1l-1.7-1.4c-0.2-0.2-0.2-0.5-0.1-0.6s0.2-0.2,0.3-0.2l2.2-0.2l0.8-2c0.1-0.2,0.4-0.4,0.6-0.3
	c0.1,0,0.2,0.1,0.3,0.3l0.8,2l2.2,0.2c0.3,0,0.4,0.2,0.4,0.5C91.1,18.6,91,18.7,90.9,18.8L90.9,18.8z"/>
</svg>
