<?xml version="1.0" encoding="utf-8"?>
<!-- Generator: Adobe Illustrator 20.1.0, SVG Export Plug-In . SVG Version: 6.00 Build 0)  -->
<svg version="1.1" id="Layer_1" xmlns="http://www.w3.org/2000/svg" xmlns:xlink="http://www.w3.org/1999/xlink" x="0px" y="0px"
	 viewBox="0 0 90.2 102.9" style="enable-background:new 0 0 90.2 102.9;" xml:space="preserve">
<style type="text/css">
	.st0{fill:#9E1B1D;}
</style>
<title>drama</title>
<g>
	<g>
		<path class="st0" d="M90,45.2c-7.4,3.5-15.9,4.1-23.8,1.8c-7.9-2.1-14.9-7-19.4-13.8c-2.8,3.7-4.9,7.9-6.1,12.3
			c-4.5,16.2,2.7,32.3,16,36S84.5,75,88.9,58.8C90.2,54.4,90.5,49.8,90,45.2z M51.5,51l8.8,2.4c-0.6,2.4-3.1,3.9-5.5,3.3
			c-2.4-0.6-3.9-3.1-3.3-5.5C51.5,51.1,51.5,51.1,51.5,51z M71.3,75.8l-24.2-6.7c2-6.6,9.1-10.4,15.7-8.3
			C69.2,62.8,72.9,69.4,71.3,75.8z M71.2,61.2c-2.4-0.7-3.8-3.2-3.2-5.6l0,0l8.8,2.4C76.2,60.4,73.7,61.8,71.2,61.2L71.2,61.2z"/>
		<path class="st0" d="M46.6,30.1c0.5,0.8,1,1.7,1.5,2.4c2.5-6.3,3-13.2,1.6-19.8C48.8,8.2,47,3.9,44.5,0
			c-5,6.5-12.2,10.9-20.3,12.5c-8,1.8-16.4,0.6-23.6-3.4c-0.8,4.6-0.8,9.2,0.2,13.8c3.4,16.5,17.1,27.5,30.6,24.7
			c2.8-0.6,5.4-1.7,7.7-3.3c0.2-0.7,0.4-1.5,0.7-2.2C41.3,37.7,43.6,33.6,46.6,30.1z M34.1,15.3c2.5-0.5,4.9,1.1,5.4,3.5
			s-1.1,4.9-3.5,5.4c-2.5,0.5-4.9-1.1-5.4-3.5C30.1,18.2,31.7,15.8,34.1,15.3L34.1,15.3z M13.7,24.1c-0.5-2.5,1.1-4.9,3.5-5.4
			s4.9,1.1,5.4,3.5c0.5,2.5-1.1,4.9-3.5,5.4C16.7,28.2,14.3,26.6,13.7,24.1C13.7,24.2,13.7,24.2,13.7,24.1z M30.5,43.3
			c-6.8,1.4-13.5-3-14.9-9.8l24.6-5.1C41.7,35.2,37.3,41.9,30.5,43.3L30.5,43.3L30.5,43.3z"/>
	</g>
</g>
</svg>
