<?xml version="1.0" encoding="utf-8"?>
<!-- Generator: Adobe Illustrator 20.1.0, SVG Export Plug-In . SVG Version: 6.00 Build 0)  -->
<svg version="1.1" id="Layer_1" xmlns="http://www.w3.org/2000/svg" xmlns:xlink="http://www.w3.org/1999/xlink" x="0px" y="0px"
	 viewBox="0 0 100 125" style="enable-background:new 0 0 100 125;" xml:space="preserve">
<style type="text/css">
	.st0{fill:#9E1B1D;}
</style>
<title>Artboard 4</title>
<path class="st0" d="M1.9,77.6C1.3,77.1,1,76.3,1,75.5v-1.1c0.7-2.8,2-5.5,3.9-7.8C4.1,51.3,12.3,39,18.3,32.2L12.9,18
	c-0.6-1.5,0-3.2,1.4-4c3.4-1.9,7.1-3.1,11-3.6c1.8-0.2,3.5,1,3.7,2.8s-1,3.5-2.8,3.7l0,0c-2.1,0.3-4.1,0.8-6,1.5l4.4,11.8
	c1.5,0.5,3.4,1.1,4.9,1.4c1.8,0.4,2.9,2.2,2.4,4l0,0c-0.5,1.8-2.3,2.8-4.1,2.3c-1.7-0.4-3.4-0.9-4.7-1.4c-5.4,6.4-12.8,17.5-11.5,31
	l0.1,1.6l-1.1,1.1c-1.1,1.1-2,2.5-2.6,4c1.1,0.9,2.4,1.6,3.7,2c1.5,0.4,2.6,1.9,2.4,3.5c-0.2,1.8-1.8,3.1-3.6,3
	c-0.2,0-0.4-0.1-0.7-0.1C6.8,81.6,4.1,79.9,1.9,77.6z M72.1,38.1c1.7-0.4,3.5-1,4.8-1.4c5.4,6.2,12.7,17.3,11.5,30.8l-0.2,1.6
	l1.2,1.1c1.1,1.1,2,2.5,2.6,4c-1.1,0.9-2.3,1.6-3.6,2c-1.7,0.5-2.7,2.4-2.2,4.1s2.4,2.7,4.1,2.2l0,0c3-1,5.7-2.7,7.8-5
	c0.5-0.5,0.8-1.3,0.8-2v-1.1c-0.7-2.8-2-5.5-3.9-7.8c0.8-15.3-7.4-27.6-13.4-34.5L87.1,18c0.6-1.5,0-3.2-1.4-4
	c-3.4-1.9-7.1-3.1-11-3.6c-1.8-0.2-3.5,1-3.7,2.8s1,3.5,2.8,3.7l0,0c2.1,0.3,4.1,0.8,6,1.5l-4.4,11.8c-1.5,0.5-3.2,1-4.8,1.4
	C69.1,32,68,33.4,68,34.9c0,1.8,1.5,3.3,3.3,3.3C71.6,38.2,71.8,38.2,72.1,38.1L72.1,38.1z M32.4,17.7c-1.2-2.4-0.3-5.3,2.1-6.5
	c0.7-0.4,1.4-0.5,2.2-0.5c3.8,0.1,7.5,0.9,11,2.3l-0.3-3.3c-0.1-1.4,0.9-2.7,2.4-2.8c0.1,0,0.1,0,0.2,0c5.4-0.2,10.8,0.9,15.8,3
	c1.5,0.7,2.2,2.4,1.6,3.9l-6.9,18.1C67.4,39.2,80.3,56,78.4,77c2.2,2.2,3.8,4.9,4.8,7.9c0.4,1.1,0,2.2-0.8,2.9
	c-5.7,4.9-11.6,6-16.3,3.5c-5.2,1.4-10.6,2-16,1.9c-5.4,0.2-10.8-0.5-16-1.9c-4.7,2.5-10.6,1.4-16.3-3.5c-0.8-0.7-1.2-1.9-0.8-2.9
	c0.9-3,2.5-5.7,4.7-7.9C20,59.1,29.1,44.2,36.1,35.7c4.6,1.2,9.2,1.8,13.9,1.8c1.4,0,2.5-1.1,2.5-2.5c0-0.1,0-0.2,0-0.3
	c-0.2-1.3-1.3-2.3-2.7-2.3c-3.5,0-7-0.4-10.4-1.1L32.4,17.7z M55.9,51.7c-1.3-0.3-2.6-0.5-3.9-0.6v-1.7c0-1.2-0.9-2.1-2.1-2.1
	c-1.2,0-2.1,0.9-2.1,2.1v2c-4.6,0.9-7.2,3.8-7.2,7.6c0,4.2,3.1,6.3,7.7,7.8c3.2,1.1,4.5,2.1,4.5,3.7s-1.7,2.7-4.1,2.7
	c-1.6,0-3.1-0.3-4.6-0.8c-0.3-0.1-0.5-0.1-0.8-0.1c-1.1,0-2.1,0.7-2.3,1.8v0.2c-0.3,1.3,0.4,2.6,1.6,3c1.7,0.5,3.4,0.8,5.1,0.9v2
	c0,1.2,0.9,2.1,2.1,2.1c1.2,0,2.1-0.9,2.1-2.1v-2.3c4.9-0.9,7.6-4.1,7.6-7.9s-2.1-6.2-7.2-8c-3.6-1.4-5.1-2.3-5.1-3.7
	c0-1.2,0.9-2.4,3.7-2.4c1.3,0,2.6,0.2,3.8,0.5c0.2,0.1,0.4,0.1,0.7,0.1c1.4,0,2.5-1.1,2.4-2.5C57.7,52.9,57,51.9,55.9,51.7
	L55.9,51.7z"/>
</svg>
