<?xml version="1.0" encoding="utf-8"?>
<!-- Generator: Adobe Illustrator 20.1.0, SVG Export Plug-In . SVG Version: 6.00 Build 0)  -->
<svg version="1.1" id="Capa_1" xmlns="http://www.w3.org/2000/svg" xmlns:xlink="http://www.w3.org/1999/xlink" x="0px" y="0px"
	 viewBox="0 0 941 523" style="enable-background:new 0 0 941 523;" xml:space="preserve">
<style type="text/css">
	.st0{fill:#9E1B1D;}
</style>
<g>
	<g>
		<path class="st0" d="M36.7,405c0,10.1,25.8,18.3,57.6,18.3s57.6-8.2,57.6-18.3c0-8.1-16.2-14.8-38.6-17.4c0.5-3.1,0.5-5.5,0.5-5.5
			s-4.8-27.1,1.7-42.9c6.5-15.7,4-39.2,2.5-42.4c-1.7-3.4-3.6-20.9,0-28.2c3.6-7.1,4.8-23.4,6.8-48.1c2-24.8-3.7-29.6-3.7-29.6
			v-20.5h3.7c12.1-1,13.7-30.5,15.3-43.8c1.7-13.4,9.7-25.7,0-41.5c-9.7-15.7-33.3-21.8-33.3-21.8l0.5-14.2c0,0,6.2-6.3,5.8-27.7
			C112.2,0,96.9,0,96.9,0h-5.1c0,0-15.3,0-15.9,21.5c-0.6,21.5,5.6,27.7,5.6,27.7L82,63.4c0,0-23.5,5.8-33.2,21.5s-1.7,28.2,0,41.5
			c1.7,13.4,3.3,42.9,15.4,43.8H68v20.5c0,0-5.8,4.8-3.7,29.6c2,24.8,3.3,40.9,6.8,48.1c3.6,7.1,1.7,24.8,0,28.2
			c-1.7,3.4-4,26.7,2.5,42.4c6.5,15.7,1.7,42.9,1.7,42.9s-0.2,2.5,0.3,5.5C52.9,390.2,36.7,397.1,36.7,405z"/>
		<path class="st0" d="M159.3,444.8c2-3,3.1-6.7,3-10.7c-0.3-17.3-6.4-21.1-8.1-21.8c-14.3,15.5-52.8,16.4-61.9,16.4
			c-8.9,0-44.8-1-60.2-14.9c-2.5,2.3-5.6,7.8-5.9,20.3c-0.2,4.2,0.9,7.7,3,10.7C13.5,449.9,4,456.8,4,464.3V500
			c0,0,17.7,24.4,95.4,22.9c77.7-1.4,85-29.3,85-29.3v-31.2h-0.3C182.7,455.7,173.5,449.5,159.3,444.8z"/>
	</g>
</g>
<g>
	<g>
		<path class="st0" d="M289,405c0,10.1,25.8,18.3,57.6,18.3s57.6-8.2,57.6-18.3c0-8.1-16.2-14.8-38.6-17.4c0.5-3.1,0.5-5.5,0.5-5.5
			s-4.8-27.1,1.7-42.9c6.5-15.7,4-39.2,2.5-42.4c-1.7-3.4-3.6-20.9,0-28.2c3.6-7.1,4.8-23.4,6.8-48.1c2-24.8-3.7-29.6-3.7-29.6
			v-20.5h3.7c12.1-1,13.7-30.5,15.3-43.8c1.7-13.4,9.7-25.7,0-41.5c-9.7-15.7-33.2-21.5-33.2-21.5l0.5-14.2c0,0,6.2-6.3,5.8-27.7
			c-0.6-21.5-16-21.5-16-21.5h-5.1c0,0-15.3,0-15.9,21.5c-0.6,21.5,5.6,27.7,5.6,27.7l0.5,14.2c0,0-23.5,5.8-33.2,21.5
			c-9.7,15.7-1.7,28.2,0,41.5c1.7,13.4,3.3,42.9,15.4,43.8h3.7V191c0,0-5.8,4.8-3.7,29.6c2,24.8,3.3,40.9,6.8,48.1
			c3.6,7.1,1.7,24.8,0,28.2c-1.7,3.4-4,26.7,2.5,42.4s1.7,42.9,1.7,42.9s-0.2,2.5,0.3,5.5C305.2,390.2,289,397.1,289,405z"/>
		<path class="st0" d="M411.5,444.8c2-3,3.1-6.7,3-10.7c-0.3-17.3-6.4-21.1-8.1-21.8c-14.3,15.5-52.8,16.4-61.9,16.4
			c-8.9,0-44.8-1-60.2-14.9c-2.5,2.3-5.6,7.8-5.9,20.3c-0.2,4.2,0.9,7.7,3,10.7c-15.6,5.1-25.1,11.9-25.1,19.4V500
			c0,0,17.7,24.4,95.4,22.9c77.7-1.4,85-29.3,85-29.3v-31.2h-0.3C435,455.7,425.8,449.5,411.5,444.8z"/>
	</g>
</g>
<g>
	<g>
		<path class="st0" d="M541.1,405c0,10.1,25.8,18.3,57.6,18.3c31.8,0,57.6-8.2,57.6-18.3c0-8.1-16.2-14.8-38.6-17.4
			c0.5-3.1,0.5-5.5,0.5-5.5s-4.8-27.1,1.7-42.9s4-39.2,2.5-42.4c-1.6-3.3-3.6-20.9,0-28.2c3.6-7.1,4.8-23.4,6.8-48.1
			c2-24.8-3.7-29.6-3.7-29.6v-20.5h3.7c12.1-1,13.7-30.5,15.3-43.8c1.7-13.4,9.7-25.7,0-41.5c-9.7-15.7-33.2-21.5-33.2-21.5
			l0.5-14.2c0,0,6.2-6.3,5.8-27.7c-0.6-21.5-16-21.5-16-21.5h-5.1c0,0-15.3,0-15.9,21.5s5.6,27.7,5.6,27.7l0.5,14.2
			c0,0-23.5,5.8-33.2,21.5c-9.7,15.7-1.7,28.2,0,41.5c1.7,13.4,3.3,42.9,15.4,43.8h3.7V191c0,0-5.8,4.8-3.7,29.6s3.3,40.9,6.8,48.1
			c3.6,7.1,1.7,24.8,0,28.2c-1.7,3.4-4,26.7,2.5,42.4s1.7,42.9,1.7,42.9s-0.2,2.5,0.3,5.5C557.3,390.2,541.1,397.1,541.1,405z"/>
		<path class="st0" d="M663.8,444.8c2-3,3.1-6.7,3-10.7c-0.3-17.3-6.4-21.1-8.1-21.8c-14.3,15.5-52.8,16.4-61.9,16.4
			c-8.9,0-44.8-1-60.2-14.9c-2.5,2.3-5.6,7.8-5.9,20.3c-0.2,4.2,0.9,7.7,3,10.7c-15.6,5.1-25.1,11.9-25.1,19.4V500
			c0,0,17.7,24.4,95.4,22.9c77.7-1.4,85-29.3,85-29.3v-31.2h-0.3C687.1,455.7,678,449.5,663.8,444.8z"/>
	</g>
</g>
<g>
	<g>
		<path class="st0" d="M793.4,405c0,10.1,25.8,18.3,57.6,18.3c31.8,0,57.6-8.2,57.6-18.3c0-8.1-16.2-14.8-38.6-17.4
			c0.5-3.1,0.5-5.5,0.5-5.5s-4.8-27.1,1.7-42.9s4-39.2,2.5-42.4c-1.7-3.4-3.6-20.9,0-28.2c3.6-7.1,4.8-23.4,6.8-48.1
			c2-24.8-3.7-29.6-3.7-29.6v-20.5h3.7c12.1-1,13.7-30.5,15.3-43.8c1.7-13.4,9.7-25.7,0-41.5c-9.7-15.7-33.2-21.5-33.2-21.5
			l0.5-14.2c0,0,6.2-6.3,5.8-27.7c-0.6-21.5-16-21.5-16-21.5h-5.1c0,0-15.3,0-15.9,21.5s5.6,27.7,5.6,27.7l0.5,14.2
			c0,0-23.5,5.8-33.2,21.5c-9.7,15.7-1.7,28.2,0,41.5c1.7,13.4,3.3,42.9,15.4,43.8h3.7V191c0,0-5.8,4.8-3.7,29.6s3.3,40.9,6.8,48.1
			c3.6,7.1,1.7,24.8,0,28.2c-1.7,3.4-4,26.7,2.5,42.4s1.7,42.9,1.7,42.9s-0.2,2.5,0.3,5.5C809.6,390.2,793.4,397.1,793.4,405z"/>
		<path class="st0" d="M915.9,444.8c2-3,3.1-6.7,3-10.7c-0.3-17.3-6.4-21.1-8.1-21.8c-14.3,15.5-52.8,16.4-61.9,16.4
			c-8.9,0-44.8-1-60.2-14.9c-2.5,2.3-5.6,7.8-5.9,20.3c-0.2,4.2,0.9,7.7,3,10.7c-15.6,5.1-25.1,11.9-25.1,19.4V500
			c0,0,17.7,24.4,95.4,22.9c77.7-1.4,85-29.3,85-29.3v-31.2h-0.3C939.3,455.7,930.1,449.5,915.9,444.8z"/>
	</g>
</g>
</svg>
