<?xml version="1.0" encoding="utf-8"?>
<!-- Generator: Adobe Illustrator 20.1.0, SVG Export Plug-In . SVG Version: 6.00 Build 0)  -->
<svg version="1.1"
	 id="Layer_1" xmlns:cc="http://creativecommons.org/ns#" xmlns:dc="http://purl.org/dc/elements/1.1/" xmlns:inkscape="http://www.inkscape.org/namespaces/inkscape" xmlns:rdf="http://www.w3.org/1999/02/22-rdf-syntax-ns#" xmlns:sodipodi="http://sodipodi.sourceforge.net/DTD/sodipodi-0.dtd" xmlns:svg="http://www.w3.org/2000/svg"
	 xmlns="http://www.w3.org/2000/svg" xmlns:xlink="http://www.w3.org/1999/xlink" x="0px" y="0px" viewBox="0 0 128 160"
	 style="enable-background:new 0 0 128 160;" xml:space="preserve">
<style type="text/css">
	.st0{fill:#8F231C;stroke:#811A1A;stroke-miterlimit:10;}
	.st1{fill:none;stroke:#811A1A;stroke-miterlimit:10;}
</style>
<path d="M69.3,55.6"/>
<g id="XMLID_1_">
	<g>
		<path class="st0" d="M107.3,86.9l-3.2,2.4c-0.3,0.2-0.4,0.6-0.3,1l1.2,3.8l-3.3-2.3c-0.3-0.2-0.8-0.2-1.1,0l-3.3,2.3l1.2-3.8
			c0.1-0.4,0-0.8-0.3-1L95,86.9l3.9-0.1c0.4,0,0.8-0.2,0.9-0.6l1.3-3.8l1.3,3.8c0.2,0.3,0.5,0.6,0.9,0.6L107.3,86.9z"/>
		<path class="st0" d="M90.3,95.9l-3.2,2.4c-0.3,0.2-0.4,0.6-0.3,1l1.2,3.8l-3.3-2.3c-0.3-0.2-0.8-0.2-1.1,0l-3.3,2.3l1.2-3.8
			c0.1-0.4,0-0.8-0.3-1L78,95.9l3.9-0.1c0.4,0,0.8-0.2,0.9-0.6l1.3-3.8l1.3,3.8c0.2,0.3,0.5,0.6,0.9,0.6L90.3,95.9z"/>
		<path class="st0" d="M70.3,98l-3.2,2.4c-0.3,0.2-0.4,0.6-0.3,1l1.2,3.8l-3.3-2.3c-0.1-0.1-0.3-0.2-0.5-0.2c-0.2,0-0.4,0.1-0.7,0.2
			l-3.3,2.3l1.2-3.8c0.1-0.4,0-0.8-0.3-1L57.9,98l4-0.1c0.4,0,0.8-0.2,0.9-0.6l1.3-3.8l1.3,3.8c0.2,0.3,0.5,0.6,0.9,0.6L70.3,98z"/>
		<path class="st0" d="M50.3,96l-3.2,2.4c-0.3,0.2-0.4,0.6-0.3,1l1.2,3.8l-3.3-2.3c-0.1-0.1-0.3-0.2-0.5-0.2s-0.4,0.1-0.7,0.2
			l-3.3,2.3l1.2-3.8c0.1-0.4,0-0.8-0.3-1L37.9,96l4-0.1c0.4,0,0.8-0.2,0.9-0.6l1.3-3.8l1.3,3.8c0.2,0.3,0.5,0.6,0.9,0.6L50.3,96z"/>
		<path class="st0" d="M33.3,86l-3.2,2.4c-0.3,0.2-0.4,0.6-0.3,1l1.2,3.8l-3.3-2.3c-0.1-0.1-0.3-0.2-0.5-0.2s-0.4,0.1-0.7,0.2
			l-3.3,2.3l1.2-3.8c0.1-0.4,0-0.8-0.3-1L20.9,86l4-0.1c0.4,0,0.8-0.2,0.9-0.6l1.3-3.8l1.3,3.8c0.2,0.3,0.5,0.6,0.9,0.6L33.3,86z"/>
		<path class="st0" d="M86.9,68.9c-6,6.4-14.1,10-23.1,10c-8.8,0-16.9-3.5-22.8-9.7c0.1-0.6,0.3-1.2,0.4-1.7c1-2.9,4-3.4,4.1-3.4
			h0.1l9.4-2.9l8,11.4c0.2,0.2,0.5,0.4,0.8,0.4s0.6-0.1,1.2-0.4l8.1-11.4l9.4,2.9h0.1c0,0,3,0.5,4,3.4C86.7,68,86.8,68.5,86.9,68.9z
			"/>
		<path class="st0" d="M62.8,55c-0.7,0-1.5,0.1-4.8-4c-0.1-0.1-0.2-0.3-0.3-0.5l-2.9-6.3c-0.2-0.4-0.7-0.6-1.2-0.5
			c-0.3,0.1-0.7-0.1-1.1-0.4c-0.5-0.5-1-1.3-1.3-2.2c-0.5-1.8-0.2-3.4,0.2-3.8c0.2,0,0.3-0.1,0.4-0.2c0.4-0.2,0.6-0.6,0.5-1.1
			c0-0.2-0.1-0.3-0.2-0.4c-1.2-7.8,2.4-9.9,4.6-11.2l0.6-0.3c2-1.3,6-1.7,6.1-1.7c0.5-0.1,1.1-0.1,1.6-0.1c3.5-0.1,6.2,0.8,8,2.7
			c3.1,3.3,3,8.5,2.9,10.3c-0.2,0.1-0.4,0.3-0.5,0.6c-0.1,0.5,0.2,1,0.7,1.2s1,1.9,0.4,4c-0.5,1.7-1.7,2.7-2.4,2.5
			c-0.5-0.2-1.1,0-1.3,0.5l-3,6.4c-0.1,0.2-0.2,0.3-0.3,0.5c-3.3,4.1-4,4.1-4.8,4h-0.5h-0.9H62.8z"/>
		<path class="st0" d="M95,86.9l3.2,2.4c0.3,0.2,0.4,0.6,0.3,1l-1.2,3.8l3.3-2.3c0.3-0.2,0.8-0.2,1.1,0l3.3,2.3l-1.2-3.8
			c-0.1-0.4,0-0.8,0.3-1l3.2-2.4l-4-0.1c-0.4,0-0.7-0.3-0.9-0.6l-1.3-3.8l-1.3,3.8c-0.1,0.4-0.5,0.6-0.9,0.6L95,86.9z M95.5,95.3
			l1.5-5l-4.2-3.2c-0.3-0.2-0.4-0.7-0.3-1c0.1-0.4,0.5-0.6,0.9-0.6l5.2-0.1l1.7-4.9c0.1-0.4,0.5-0.6,0.9-0.6s0.8,0.3,0.9,0.6
			l1.7,4.9l5.2,0.1c0.4,0,0.7,0.3,0.9,0.6c0.1,0.4,0,0.8-0.3,1l-4.2,3.2l1.5,5c0.1,0.3,0,0.6-0.1,0.8c-0.2,0.3-0.5,0.4-0.8,0.4
			c-0.2,0-0.4-0.1-0.5-0.2l-4.3-3l-4.3,3c-0.4,0.3-1,0.2-1.3-0.2C95.4,95.9,95.4,95.6,95.5,95.3z"/>
		<path class="st0" d="M83.1,55.9L79.3,57L76,56l7.2-2.2c0.1,0,0.2,0,0.3,0c0.3,0,0.6,0.2,0.8,0.4l4.9,7c0.2,0.2,0.4,0.4,0.6,0.6
			l0.1,0.2l5.6-7.8c0.2-0.3,0.5-0.4,0.8-0.4c0.1,0,0.2,0,0.3,0.1l7.5,2.3c0.5,0.1,3.3,0.8,4.3,3.7c0.2,0.6,0.3,1.3,0.4,1.9
			c0,0,0,0.1,0,0.2v0.1c-0.1,0.1-0.1,0.3-0.2,0.4c-4.2,4.5-9.7,7.3-15.7,8l-0.3-1.7v-0.2c5.5-0.7,10.4-3.1,14.2-7.1
			c-0.1-0.4-0.1-0.8-0.2-1.1c-0.7-2-2.9-2.4-2.9-2.4h-0.1l-6.9-2.1l-5.6,7.7c0.1,0.1,0.1,0.1,0.1,0.1l-0.4,0.6
			c-0.2,0.2-0.5,0.4-0.8,0.4s-0.6-0.1-0.8-0.4L85.5,59c-0.1,0-0.2-0.1-0.3-0.1L83.1,55.9z"/>
		<path class="st0" d="M81.9,44.1h-0.2c0.2-0.5,0.4-0.9,0.5-1.4c0.1-0.2,0.1-0.4,0.2-0.6h0.3c0.3,0.1,0.6,0.3,0.7,0.6l2.2,4.8
			c0,0.1,0.1,0.2,0.2,0.3c2.4,3,2.9,2.9,3.4,2.9h0.4h0.7h0.4c0.5,0,1,0.1,3.4-2.9c0.1-0.1,0.1-0.2,0.2-0.3l2.2-4.8
			c0.2-0.5,0.7-0.7,1.2-0.5c0.3,0.1,1.1-0.5,1.5-1.8c0.5-1.5,0.1-2.6-0.1-2.7c-0.5-0.1-0.8-0.7-0.6-1.2c0-0.1,0-0.2,0.1-0.3
			c0.1-1.1,0.3-5.2-2.1-7.7c-1.5-1.6-3.9-2.2-7-1.9c-0.8,0.1-3.3,0.4-4.5,1.2c-0.1,0.1-0.2,0.2-0.4,0.3c-1,0.5-2.3,1.3-3,3
			c-0.1-0.9-0.3-1.8-0.5-2.8c0.9-0.9,1.8-1.5,2.5-1.9c0.2,0,0.3-0.1,0.4-0.2c1.9-1.2,5.3-1.5,5.4-1.5c0.4-0.1,0.9-0.1,1.3-0.1
			c3-0.1,5.5,0.8,7.2,2.6c3,3.1,2.8,7.8,2.6,9.3c0.9,1,1.1,2.9,0.7,4.3c-0.5,1.9-1.8,3.1-3.1,3.2l-1.9,4.2c-0.2,0.3-0.3,0.6-0.5,0.8
			c-2.5,3.1-3.5,3.6-4.7,3.6h-0.3h-0.3h-0.7h-0.3c-1.4,0.1-2.3-0.2-5.1-3.6c-0.2-0.3-0.4-0.5-0.5-0.8L81.9,44.1z"/>
		<path class="st0" d="M81.6,94.4l1.7-4.9c0.1-0.4,0.5-0.6,0.9-0.6s0.8,0.3,0.9,0.6l1.7,4.9l5.2,0.1c0.4,0,0.7,0.3,0.9,0.6
			c0.1,0.4,0,0.8-0.3,1l-4.2,3.2l1.5,5c0.1,0.3,0,0.6-0.1,0.8c-0.2,0.3-0.5,0.4-0.8,0.4c-0.2,0-0.4-0.1-0.5-0.2l-4.3-3l-4.3,3
			c-0.4,0.3-1,0.2-1.3-0.2c-0.2-0.2-0.2-0.5-0.1-0.8l1.5-5l-4.2-3.2c-0.3-0.2-0.4-0.7-0.3-1c0.1-0.4,0.5-0.6,0.9-0.6L81.6,94.4z
			 M81.9,95.8L78,95.9l3.2,2.4c0.3,0.2,0.4,0.6,0.3,1l-1.2,3.8l3.3-2.3c0.3-0.2,0.8-0.2,1.1,0l3.3,2.3l-1.2-3.8
			c-0.1-0.4,0-0.8,0.3-1l3.2-2.4l-4-0.1c-0.4,0-0.7-0.3-0.9-0.6l-1.3-3.8l-1.3,3.8C82.7,95.6,82.3,95.8,81.9,95.8z"/>
		<path class="st0" d="M60.2,105.2l3.3-2.3c0.3-0.1,0.5-0.2,0.7-0.2s0.4,0.1,0.5,0.2l3.3,2.3l-1.2-3.8c-0.1-0.4,0-0.8,0.3-1l3.2-2.4
			l-4-0.1c-0.4,0-0.7-0.3-0.9-0.6l-1.3-3.8l-1.3,3.8c-0.1,0.4-0.5,0.6-0.9,0.6l-4,0.1l3.2,2.4c0.3,0.2,0.4,0.6,0.3,1L60.2,105.2z
			 M60,101.3l-4.2-3.2c-0.3-0.2-0.4-0.7-0.3-1c0.1-0.4,0.5-0.6,0.9-0.6l5.2-0.1l1.7-4.9c0.1-0.4,0.5-0.6,0.9-0.6s0.8,0.3,0.9,0.6
			l1.7,4.9l5.2,0.1c0.4,0,0.7,0.3,0.9,0.6c0.1,0.4,0,0.8-0.3,1l-4.2,3.2l1.5,5c0.1,0.3,0,0.6-0.1,0.8c-0.2,0.3-0.5,0.4-0.8,0.4
			c-0.2,0-0.4-0.1-0.5-0.2l-4.3-3l-4.3,3c-0.4,0.3-1,0.2-1.3-0.2c-0.2-0.2-0.2-0.5-0.1-0.8L60,101.3z"/>
		<path class="st0" d="M54.8,44.2l2.9,6.3c0.1,0.2,0.2,0.4,0.3,0.5c3.3,4.1,4.1,4,4.8,4h0.5h0.9h0.5c0.8,0.1,1.5,0.1,4.8-4
			c0.1-0.2,0.2-0.3,0.3-0.5l3-6.4c0.2-0.5,0.8-0.7,1.3-0.5c0.7,0.2,1.9-0.8,2.4-2.5c0.6-2.1,0.1-3.8-0.4-4s-0.8-0.7-0.7-1.2
			c0.1-0.3,0.3-0.5,0.5-0.6c0.1-1.8,0.2-7-2.9-10.3c-1.8-1.9-4.5-2.8-8-2.7c-0.5,0-1.1,0-1.6,0.1c-0.1,0-4.1,0.4-6.1,1.7l-0.6,0.3
			c-2.2,1.3-5.8,3.4-4.6,11.2c0.1,0.1,0.2,0.2,0.2,0.4c0.1,0.5-0.1,0.9-0.5,1.1c-0.1,0.1-0.2,0.2-0.4,0.2c-0.4,0.4-0.7,2-0.2,3.8
			c0.3,0.9,0.8,1.7,1.3,2.2c0.4,0.3,0.8,0.5,1.1,0.4C54.1,43.6,54.6,43.8,54.8,44.2z M50.1,35.7c-1.3-8.9,3.3-11.6,5.6-13
			c0.2-0.1,0.4-0.2,0.5-0.3c2.5-1.6,6.8-2,7-2c0.6,0,1.2-0.1,1.8-0.1c4-0.1,7.2,1,9.4,3.3c3.9,4.1,3.6,10.5,3.4,12.4
			c1,1.3,1.1,3.7,0.5,5.7c-0.7,2.4-2.4,4-4.1,4l-2.7,5.7c-0.2,0.3-0.4,0.7-0.6,0.9c-3.6,4.4-4.8,4.8-6.5,4.7H64h-0.9h-0.4h-0.2
			c-1.5,0-2.8-0.7-6.1-4.7l-0.6-0.9l-2.6-5.7c-0.7,0-1.4-0.3-2.1-0.9c-0.8-0.7-1.5-1.8-1.9-3.1C48.5,39.5,48.7,36.9,50.1,35.7z"/>
		<path class="st0" d="M55,61.2l-9.4,2.9h-0.1c-0.1,0-3.1,0.5-4.1,3.4c-0.1,0.5-0.3,1.1-0.4,1.7c5.9,6.2,14,9.7,22.8,9.7
			c9,0,17.1-3.6,23.1-10c-0.1-0.4-0.2-0.9-0.3-1.4c-1-2.9-4-3.4-4-3.4h-0.1l-9.4-2.9L65,72.6c-0.6,0.3-0.9,0.4-1.2,0.4
			s-0.6-0.2-0.8-0.4L55,61.2z M39.5,66.9c1.3-3.8,5-4.6,5.6-4.8l10-3.1c0.1,0,0.2,0,0.3,0c0.3,0,0.6,0.1,0.8,0.4l7.7,10.9l7.7-10.9
			c0.2-0.4,0.7-0.5,1.1-0.4l10.1,3.1c0.6,0.1,4.3,1,5.6,4.7c0.2,0.8,0.4,1.7,0.5,2.5c0.1,0.5-0.3,1-0.7,1.1
			C82,77.2,73.3,80.9,63.8,80.9c-9.6,0-18.4-3.8-24.7-10.8c-0.3-0.3-0.3-0.8,0-1.2C39.2,68.2,39.3,67.5,39.5,66.9z"/>
		<path class="st0" d="M40.2,103.2l3.3-2.3c0.3-0.1,0.5-0.2,0.7-0.2s0.4,0.1,0.5,0.2l3.3,2.3l-1.2-3.8c-0.1-0.4,0-0.8,0.3-1l3.2-2.4
			l-4-0.1c-0.4,0-0.7-0.3-0.9-0.6l-1.3-3.8l-1.3,3.8c-0.1,0.4-0.5,0.6-0.9,0.6l-4,0.1l3.2,2.4c0.3,0.2,0.4,0.6,0.3,1L40.2,103.2z
			 M40,99.3l-4.2-3.2c-0.3-0.2-0.4-0.7-0.3-1c0.1-0.4,0.5-0.6,0.9-0.6l5.2-0.1l1.7-4.9c0.1-0.4,0.5-0.6,0.9-0.6s0.8,0.3,0.9,0.6
			l1.7,4.9l5.2,0.1c0.4,0,0.7,0.3,0.9,0.6c0.1,0.4,0,0.8-0.3,1l-4.2,3.2l1.5,5c0.1,0.3,0,0.6-0.1,0.8c-0.2,0.3-0.5,0.4-0.8,0.4
			c-0.2,0-0.4-0.1-0.5-0.2l-4.3-3l-4.3,3c-0.4,0.3-1,0.2-1.3-0.2c-0.2-0.2-0.2-0.5-0.1-0.8L40,99.3z"/>
		<path class="st0" d="M26.4,38.1c0.1-0.7,0.4-1.2,0.7-1.6c-1-6.9,2.5-9,4.3-10.1c0.2,0,0.3-0.1,0.4-0.2c1.9-1.2,5.3-1.5,5.4-1.5
			c0.5-0.1,1-0.1,1.4-0.1c3-0.1,5.5,0.8,7.2,2.6c0.3,0.3,0.5,0.5,0.7,0.8c-0.3,1-0.5,2-0.7,3.1c-0.3-0.9-0.8-1.8-1.5-2.6
			c-1.5-1.6-3.9-2.2-7-1.9c-0.8,0.1-3.3,0.4-4.5,1.2c-0.1,0.1-0.2,0.2-0.4,0.3c-1.7,1-4.1,2.5-3.4,8c0.2,0.1,0.3,0.3,0.3,0.5
			c0.1,0.6-0.2,1.1-0.7,1.2h-0.1c-0.1,0.1-0.5,1.2,0,2.7c0.2,0.6,0.5,1.2,0.9,1.5c0.2,0.1,0.5,0.2,0.6,0.2c0.2-0.1,0.4-0.1,0.6,0
			c0.3,0.1,0.5,0.3,0.6,0.5l2.2,4.8c0,0.1,0.1,0.2,0.2,0.3c2.4,3,2.9,2.9,3.4,2.9h0.4h0.7h0.4c0.5,0,1,0.1,3.4-2.9
			c0.1-0.1,0.1-0.2,0.2-0.3l2.2-4.8c0.2-0.3,0.6-0.5,1-0.5c0.1,0.2,0.2,0.5,0.4,0.7c0.2,0.4,0.3,0.8,0.5,1.2H46l-1.9,4.2
			c-0.2,0.3-0.3,0.6-0.5,0.8c-2.5,3.1-3.5,3.6-4.7,3.6h-0.4h-0.3h-0.7h-0.3c-1.4,0.1-2.3-0.2-5.1-3.6c-0.2-0.3-0.4-0.5-0.5-0.8
			l-1.9-4.1c-0.6,0-1.1-0.3-1.6-0.7c-0.7-0.5-1.2-1.4-1.5-2.4C26.3,40.1,26.2,39,26.4,38.1z"/>
		<path class="st0" d="M20.9,61.4c3.8,4,8.7,6.5,14.2,7.1c0,0.1-0.1,0.2,0,0.2l-0.3,1.7c-6.1-0.7-11.6-3.5-15.7-8
			c-0.2-0.2-0.2-0.5-0.2-0.8v-0.1c0.1-0.6,0.2-1.3,0.4-1.8c1-2.9,3.8-3.6,4.3-3.7l7.5-2.3c0.1,0,0.2,0,0.3,0c0.3,0,0.6,0.2,0.8,0.4
			l5.6,7.9l5.6-7.8c0.3-0.4,0.7-0.5,1.1-0.4l7.2,2.2l-3.3,1l-3.8-1.2l-2.1,3l-3.9,5.5c-0.2,0.2-0.5,0.4-0.8,0.4s-0.6-0.2-0.8-0.5
			l-0.4-0.5L31,55.8l-6.9,2.1H24c-0.1,0-2.2,0.4-2.9,2.4C21,60.6,21,61,20.9,61.4z"/>
		<path class="st0" d="M26.3,79.5c0.1-0.4,0.5-0.6,0.9-0.6s0.8,0.3,0.9,0.6l1.7,4.9l5.2,0.1c0.4,0,0.7,0.3,0.9,0.6
			c0.1,0.4,0,0.8-0.3,1l-4.2,3.2l1.5,5c0.1,0.3,0,0.6-0.1,0.8c-0.2,0.3-0.5,0.4-0.8,0.4c-0.2,0-0.4-0.1-0.5-0.2l-4.3-3l-4.3,3
			c-0.4,0.3-1,0.2-1.3-0.2c-0.2-0.2-0.2-0.5-0.1-0.8l1.5-5l-4.2-3.2c-0.3-0.2-0.4-0.7-0.3-1c0.1-0.4,0.5-0.6,0.9-0.6l5.2-0.1
			L26.3,79.5z M23.2,93.2l3.3-2.3c0.3-0.1,0.5-0.2,0.7-0.2s0.4,0.1,0.5,0.2l3.3,2.3l-1.2-3.8c-0.1-0.4,0-0.8,0.3-1l3.2-2.4l-4-0.1
			c-0.4,0-0.7-0.3-0.9-0.6l-1.3-3.8l-1.3,3.8c-0.1,0.4-0.5,0.6-0.9,0.6l-4,0.1l3.2,2.4c0.3,0.2,0.4,0.6,0.3,1L23.2,93.2z"/>
	</g>
	<g>
		<path class="st1" d="M65,20.3c-0.6,0-1.2,0.1-1.8,0.1c-0.2,0-4.5,0.4-7,2c-0.1,0.1-0.3,0.2-0.5,0.3c-2.3,1.4-6.9,4.1-5.6,13
			c-1.4,1.2-1.6,3.8-0.9,6c0.4,1.3,1.1,2.4,1.9,3.1c0.7,0.6,1.4,0.9,2.1,0.9l2.6,5.7l0.6,0.9c3.3,4,4.6,4.7,6.1,4.7h0.2h0.4H64h0.4
			c1.7,0.1,2.9-0.3,6.5-4.7c0.2-0.2,0.4-0.6,0.6-0.9l2.7-5.7c1.7,0,3.4-1.6,4.1-4c0.6-2,0.5-4.4-0.5-5.7c0.2-1.9,0.5-8.3-3.4-12.4
			C72.2,21.3,69,20.2,65,20.3z"/>
		<path class="st1" d="M65,22.3c3.5-0.1,6.2,0.8,8,2.7c3.1,3.3,3,8.5,2.9,10.3c-0.2,0.1-0.4,0.3-0.5,0.6c-0.1,0.5,0.2,1,0.7,1.2
			s1,1.9,0.4,4c-0.5,1.7-1.7,2.7-2.4,2.5c-0.5-0.2-1.1,0-1.3,0.5l-3,6.4c-0.1,0.2-0.2,0.3-0.3,0.5c-3.3,4.1-4,4.1-4.8,4h-0.5h-0.9
			h-0.5c-0.7,0-1.5,0.1-4.8-4c-0.1-0.1-0.2-0.3-0.3-0.5l-2.9-6.3c-0.2-0.4-0.7-0.6-1.2-0.5c-0.3,0.1-0.7-0.1-1.1-0.4
			c-0.5-0.5-1-1.3-1.3-2.2c-0.5-1.8-0.2-3.4,0.2-3.8c0.2,0,0.3-0.1,0.4-0.2c0.4-0.2,0.6-0.6,0.5-1.1c0-0.2-0.1-0.3-0.2-0.4
			c-1.2-7.8,2.4-9.9,4.6-11.2l0.6-0.3c2-1.3,6-1.7,6.1-1.7C63.9,22.3,64.5,22.3,65,22.3z"/>
		<path class="st1" d="M38.6,24.6c-0.4,0-0.9,0-1.4,0.1c-0.1,0-3.5,0.3-5.4,1.5c-0.1,0.1-0.2,0.2-0.4,0.2c-1.8,1.1-5.3,3.2-4.3,10.1
			c-0.3,0.4-0.6,0.9-0.7,1.6c-0.2,0.9-0.1,2,0.2,3c0.3,1,0.8,1.9,1.5,2.4c0.5,0.4,1,0.7,1.6,0.7l1.9,4.1c0.1,0.3,0.3,0.5,0.5,0.8
			c2.8,3.4,3.7,3.7,5.1,3.6h0.3h0.7h0.3h0.4c1.2,0,2.2-0.5,4.7-3.6c0.2-0.2,0.3-0.5,0.5-0.8l1.9-4.2h0.2c-0.2-0.4-0.3-0.8-0.5-1.2
			c-0.2-0.2-0.3-0.5-0.4-0.7c-0.4,0-0.8,0.2-1,0.5l-2.2,4.8c-0.1,0.1-0.1,0.2-0.2,0.3c-2.4,3-2.9,2.9-3.4,2.9h-0.4h-0.7H37
			c-0.5,0-1,0.1-3.4-2.9c-0.1-0.1-0.2-0.2-0.2-0.3l-2.2-4.8c-0.1-0.2-0.3-0.4-0.6-0.5c-0.2-0.1-0.4-0.1-0.6,0
			c-0.1,0-0.4-0.1-0.6-0.2c-0.4-0.3-0.7-0.9-0.9-1.5c-0.5-1.5-0.1-2.6,0-2.7h0.1c0.5-0.1,0.8-0.6,0.7-1.2c0-0.2-0.1-0.4-0.3-0.5
			c-0.7-5.5,1.7-7,3.4-8c0.2-0.1,0.3-0.2,0.4-0.3c1.2-0.8,3.7-1.1,4.5-1.2c3.1-0.3,5.5,0.3,7,1.9c0.7,0.8,1.2,1.7,1.5,2.6
			C46,30,46.2,29,46.5,28c-0.2-0.3-0.4-0.5-0.7-0.8C44.1,25.4,41.6,24.5,38.6,24.6z"/>
		<path class="st1" d="M90.7,24.6c-0.4,0-0.9,0-1.3,0.1c-0.1,0-3.5,0.3-5.4,1.5c-0.1,0.1-0.2,0.2-0.4,0.2c-0.7,0.4-1.6,1-2.5,1.9
			c0.2,1,0.4,1.9,0.5,2.8c0.7-1.7,2-2.5,3-3c0.2-0.1,0.3-0.2,0.4-0.3c1.2-0.8,3.7-1.1,4.5-1.2c3.1-0.3,5.5,0.3,7,1.9
			c2.4,2.5,2.2,6.6,2.1,7.7c-0.1,0.1-0.1,0.2-0.1,0.3c-0.2,0.5,0.1,1.1,0.6,1.2c0.2,0.1,0.6,1.2,0.1,2.7c-0.4,1.3-1.2,1.9-1.5,1.8
			c-0.5-0.2-1,0-1.2,0.5l-2.2,4.8c-0.1,0.1-0.1,0.2-0.2,0.3c-2.4,3-2.9,2.9-3.4,2.9h-0.4h-0.7h-0.4c-0.5,0-1,0.1-3.4-2.9
			c-0.1-0.1-0.2-0.2-0.2-0.3l-2.2-4.8c-0.1-0.3-0.4-0.5-0.7-0.6h-0.3c-0.1,0.2-0.1,0.4-0.2,0.6c-0.1,0.5-0.3,0.9-0.5,1.4h0.2
			l1.9,4.1c0.1,0.3,0.3,0.5,0.5,0.8c2.8,3.4,3.7,3.7,5.1,3.6h0.3h0.7h0.3H91c1.2,0,2.2-0.5,4.7-3.6c0.2-0.2,0.3-0.5,0.5-0.8l1.9-4.2
			c1.3-0.1,2.6-1.3,3.1-3.2c0.4-1.4,0.2-3.3-0.7-4.3c0.2-1.5,0.4-6.2-2.6-9.3C96.2,25.4,93.7,24.5,90.7,24.6z"/>
		<path class="st1" d="M31.4,53.7c-0.1,0-0.2,0-0.3,0L23.6,56c-0.5,0.1-3.3,0.8-4.3,3.7c-0.2,0.5-0.3,1.2-0.4,1.8v0.1
			c0,0.3,0,0.6,0.2,0.8c4.1,4.5,9.6,7.3,15.7,8l0.3-1.7c-0.1,0,0-0.1,0-0.2c-5.5-0.6-10.4-3.1-14.2-7.1c0.1-0.4,0.1-0.8,0.2-1.1
			c0.7-2,2.8-2.4,2.9-2.4h0.1l6.9-2.1l5.6,7.9l0.4,0.5c0.2,0.3,0.5,0.5,0.8,0.5s0.6-0.2,0.8-0.4l3.9-5.5l2.1-3l3.8,1.2l3.3-1
			l-7.2-2.2c-0.4-0.1-0.8,0-1.1,0.4L37.8,62l-5.6-7.9C32,53.9,31.7,53.7,31.4,53.7z"/>
		<path class="st1" d="M96.3,53.8c-0.3,0-0.6,0.1-0.8,0.4L89.9,62l-0.1-0.2c-0.2-0.2-0.4-0.4-0.6-0.6l-4.9-7
			c-0.2-0.2-0.5-0.4-0.8-0.4c-0.1,0-0.2,0-0.3,0L76,56l3.3,1l3.8-1.1l2.1,3c0.1,0,0.2,0.1,0.3,0.1l3.7,5.3c0.2,0.3,0.5,0.4,0.8,0.4
			s0.6-0.2,0.8-0.4l0.4-0.6c0,0,0,0-0.1-0.1l5.6-7.7l6.9,2.1h0.1c0,0,2.2,0.4,2.9,2.4c0.1,0.3,0.1,0.7,0.2,1.1
			c-3.8,4-8.7,6.4-14.2,7.1v0.2l0.3,1.7c6-0.7,11.5-3.5,15.7-8c0.1-0.1,0.1-0.3,0.2-0.4V62c0-0.1,0-0.2,0-0.2
			c-0.1-0.6-0.2-1.3-0.4-1.9c-1-2.9-3.8-3.6-4.3-3.7l-7.5-2.3C96.5,53.8,96.4,53.8,96.3,53.8z"/>
		<path class="st1" d="M55.4,59c-0.1,0-0.2,0-0.3,0l-10,3.1c-0.6,0.2-4.3,1-5.6,4.8c-0.2,0.6-0.3,1.3-0.4,2c-0.3,0.4-0.3,0.9,0,1.2
			c6.3,7,15.1,10.8,24.7,10.8c9.5,0,18.2-3.7,24.4-10.5c0.4-0.1,0.8-0.6,0.7-1.1c-0.1-0.8-0.3-1.7-0.5-2.5c-1.3-3.7-5-4.6-5.6-4.7
			L72.7,59c-0.4-0.1-0.9,0-1.1,0.4l-7.7,10.9l-7.7-10.9C56,59.1,55.7,59,55.4,59z"/>
		<path class="st1" d="M55,61.2l8,11.4c0.2,0.2,0.5,0.4,0.8,0.4s0.6-0.1,1.2-0.4l8.1-11.4l9.4,2.9h0.1c0,0,3,0.5,4,3.4
			c0.1,0.5,0.2,1,0.3,1.4c-6,6.4-14.1,10-23.1,10c-8.8,0-16.9-3.5-22.8-9.7c0.1-0.6,0.3-1.2,0.4-1.7c1-2.9,4-3.4,4.1-3.4h0.1
			L55,61.2z"/>
		<path class="st1" d="M27.2,78.9c-0.4,0-0.8,0.2-0.9,0.6l-1.7,4.9l-5.2,0.1c-0.4,0-0.8,0.2-0.9,0.6c-0.1,0.3,0,0.8,0.3,1l4.2,3.2
			l-1.5,5c-0.1,0.3-0.1,0.6,0.1,0.8c0.3,0.4,0.9,0.5,1.3,0.2l4.3-3l4.3,3c0.1,0.1,0.3,0.2,0.5,0.2c0.3,0,0.6-0.1,0.8-0.4
			c0.1-0.2,0.2-0.5,0.1-0.8l-1.5-5l4.2-3.2c0.3-0.2,0.4-0.6,0.3-1c-0.2-0.3-0.5-0.6-0.9-0.6l-5.2-0.1l-1.7-4.9
			C28,79.2,27.6,78.9,27.2,78.9z"/>
		<path class="st1" d="M101.2,79.9c-0.4,0-0.8,0.2-0.9,0.6l-1.7,4.9l-5.2,0.1c-0.4,0-0.8,0.2-0.9,0.6c-0.1,0.3,0,0.8,0.3,1l4.2,3.2
			l-1.5,5c-0.1,0.3-0.1,0.6,0.1,0.8c0.3,0.4,0.9,0.5,1.3,0.2l4.3-3l4.3,3c0.1,0.1,0.3,0.2,0.5,0.2c0.3,0,0.6-0.1,0.8-0.4
			c0.1-0.2,0.2-0.5,0.1-0.8l-1.5-5l4.2-3.2c0.3-0.2,0.4-0.6,0.3-1c-0.2-0.3-0.5-0.6-0.9-0.6l-5.2-0.1l-1.7-4.9
			C102,80.2,101.6,79.9,101.2,79.9z"/>
		<path class="st1" d="M27.1,81.5l1.3,3.8c0.2,0.3,0.5,0.6,0.9,0.6l4,0.1l-3.2,2.4c-0.3,0.2-0.4,0.6-0.3,1l1.2,3.8l-3.3-2.3
			c-0.1-0.1-0.3-0.2-0.5-0.2s-0.4,0.1-0.7,0.2l-3.3,2.3l1.2-3.8c0.1-0.4,0-0.8-0.3-1L20.9,86l4-0.1c0.4,0,0.8-0.2,0.9-0.6L27.1,81.5
			z"/>
		<path class="st1" d="M101.1,82.4l1.3,3.8c0.2,0.3,0.5,0.6,0.9,0.6l4,0.1l-3.2,2.4c-0.3,0.2-0.4,0.6-0.3,1l1.2,3.8l-3.3-2.3
			c-0.3-0.2-0.8-0.2-1.1,0l-3.3,2.3l1.2-3.8c0.1-0.4,0-0.8-0.3-1L95,86.9l3.9-0.1c0.4,0,0.8-0.2,0.9-0.6L101.1,82.4z"/>
		<path class="st1" d="M44.2,88.9c-0.4,0-0.8,0.2-0.9,0.6l-1.7,4.9l-5.2,0.1c-0.4,0-0.8,0.2-0.9,0.6c-0.1,0.3,0,0.8,0.3,1l4.2,3.2
			l-1.5,5c-0.1,0.3-0.1,0.6,0.1,0.8c0.3,0.4,0.9,0.5,1.3,0.2l4.3-3l4.3,3c0.1,0.1,0.3,0.2,0.5,0.2c0.3,0,0.6-0.1,0.8-0.4
			c0.1-0.2,0.2-0.5,0.1-0.8l-1.5-5l4.2-3.2c0.3-0.2,0.4-0.6,0.3-1c-0.2-0.3-0.5-0.6-0.9-0.6l-5.2-0.1l-1.7-4.9
			C45,89.2,44.6,88.9,44.2,88.9z"/>
		<path class="st1" d="M84.2,88.9c-0.4,0-0.8,0.2-0.9,0.6l-1.7,4.9l-5.2,0.1c-0.4,0-0.8,0.2-0.9,0.6c-0.1,0.3,0,0.8,0.3,1l4.2,3.2
			l-1.5,5c-0.1,0.3-0.1,0.6,0.1,0.8c0.3,0.4,0.9,0.5,1.3,0.2l4.3-3l4.3,3c0.1,0.1,0.3,0.2,0.5,0.2c0.3,0,0.6-0.1,0.8-0.4
			c0.1-0.2,0.2-0.5,0.1-0.8l-1.5-5l4.2-3.2c0.3-0.2,0.4-0.6,0.3-1c-0.2-0.3-0.5-0.6-0.9-0.6l-5.2-0.1l-1.7-4.9
			C85,89.2,84.6,88.9,84.2,88.9z"/>
		<path class="st1" d="M64.2,90.9c-0.4,0-0.8,0.2-0.9,0.6l-1.7,4.9l-5.2,0.1c-0.4,0-0.8,0.2-0.9,0.6c-0.1,0.3,0,0.8,0.3,1l4.2,3.2
			l-1.5,5c-0.1,0.3-0.1,0.6,0.1,0.8c0.3,0.4,0.9,0.5,1.3,0.2l4.3-3l4.3,3c0.1,0.1,0.3,0.2,0.5,0.2c0.3,0,0.6-0.1,0.8-0.4
			c0.1-0.2,0.2-0.5,0.1-0.8l-1.5-5l4.2-3.2c0.3-0.2,0.4-0.6,0.3-1c-0.2-0.3-0.5-0.6-0.9-0.6l-5.2-0.1l-1.7-4.9
			C65,91.2,64.6,90.9,64.2,90.9z"/>
		<path class="st1" d="M84.1,91.4l1.3,3.8c0.2,0.3,0.5,0.6,0.9,0.6l4,0.1l-3.2,2.4c-0.3,0.2-0.4,0.6-0.3,1l1.2,3.8l-3.3-2.3
			c-0.3-0.2-0.8-0.2-1.1,0l-3.3,2.3l1.2-3.8c0.1-0.4,0-0.8-0.3-1L78,95.9l3.9-0.1c0.4,0,0.8-0.2,0.9-0.6L84.1,91.4z"/>
		<path class="st1" d="M44.1,91.5l1.3,3.8c0.2,0.3,0.5,0.6,0.9,0.6l4,0.1l-3.2,2.4c-0.3,0.2-0.4,0.6-0.3,1l1.2,3.8l-3.3-2.3
			c-0.1-0.1-0.3-0.2-0.5-0.2s-0.4,0.1-0.7,0.2l-3.3,2.3l1.2-3.8c0.1-0.4,0-0.8-0.3-1L37.9,96l4-0.1c0.4,0,0.8-0.2,0.9-0.6L44.1,91.5
			z"/>
		<path class="st1" d="M64.1,93.5l1.3,3.8c0.2,0.3,0.5,0.6,0.9,0.6l4,0.1l-3.2,2.4c-0.3,0.2-0.4,0.6-0.3,1l1.2,3.8l-3.3-2.3
			c-0.1-0.1-0.3-0.2-0.5-0.2c-0.2,0-0.4,0.1-0.7,0.2l-3.3,2.3l1.2-3.8c0.1-0.4,0-0.8-0.3-1L57.9,98l4-0.1c0.4,0,0.8-0.2,0.9-0.6
			L64.1,93.5z"/>
	</g>
</g>
<path d="M61.5,60.3"/>
<path d="M94,51.4"/>
<path d="M41.9,51.4"/>
<path d="M36.1,54.9"/>
<path d="M88.1,54.9"/>
</svg>
